<svg width="24" height="24" viewBox="0 0 24 24" fill="none" xmlns="http://www.w3.org/2000/svg">
<path fill-rule="evenodd" clip-rule="evenodd" d="M18.1699 6.81993L20.995 3.99483L20.005 3.00488L16.9943 6.01566C15.6445 5.22142 13.9892 4.66685 11.9998 4.66685C8.41851 4.66685 5.91851 6.46418 4.33718 8.22152C3.4751 9.18519 2.7525 10.265 2.19051 11.4295C2.14206 11.5334 2.09583 11.6383 2.05184 11.7442L2.04918 11.7495V11.7509H2.04651L2.66651 12.0002L2.04784 11.7522C1.98405 11.9114 1.98405 12.089 2.04784 12.2482V12.2509L2.05184 12.2562C2.06295 12.2844 2.0745 12.3124 2.08651 12.3402L2.19051 12.5709C2.75252 13.7353 3.47512 14.8152 4.33718 15.7788C4.76623 16.2553 5.26261 16.7346 5.82962 17.1803L3.00503 20.0049L3.99497 20.9948L7.00522 17.9846C7.00944 17.9871 7.01366 17.9895 7.01789 17.992L7.99715 17.0128C7.99278 17.0104 7.98842 17.0081 7.98405 17.0058L10.1902 14.7996C10.1943 14.8022 10.1984 14.8048 10.2025 14.8074L11.1838 13.8261C11.1792 13.8241 11.1745 13.822 11.1699 13.8199L13.8195 11.1703C13.8216 11.1749 13.8237 11.1795 13.8258 11.1841L14.8071 10.2028C14.8045 10.1987 14.8019 10.1947 14.7992 10.1906L17.22 7.76981C17.2238 7.77271 17.2276 7.7756 17.2314 7.7785L18.1811 6.82879C18.1774 6.82583 18.1736 6.82288 18.1699 6.81993ZM16.0154 6.99449C14.8994 6.39713 13.5683 6.00018 11.9998 6.00018C8.91451 6.00018 6.74651 7.53618 5.32918 9.11218C4.55398 9.97932 3.9037 10.9505 3.39718 11.9975L3.3959 12.0001L3.39718 12.0028C3.9037 13.0499 4.55398 14.021 5.32918 14.8882C5.74646 15.3517 6.22845 15.8118 6.7795 16.2304L9.20033 13.8096C8.85454 13.2745 8.66651 12.6471 8.66651 12.0002C8.66651 11.1161 9.0177 10.2683 9.64282 9.64316C10.2679 9.01804 11.1158 8.66685 11.9998 8.66685C12.6467 8.66685 13.2742 8.85488 13.8092 9.20067L16.0154 6.99449ZM12.8295 10.1804C12.5715 10.0628 12.2889 10.0002 11.9998 10.0002C11.4694 10.0002 10.9607 10.2109 10.5856 10.586C10.2106 10.961 9.99985 11.4698 9.99985 12.0002C9.99985 12.2892 10.0624 12.5718 10.1801 12.8299L12.8295 10.1804ZM11.9998 14.99L11.6724 15.3174C11.7808 15.3281 11.89 15.3335 11.9998 15.3335C12.8839 15.3335 13.7317 14.9823 14.3569 14.3572C14.982 13.7321 15.3332 12.8842 15.3332 12.0002C15.3332 11.8904 15.3278 11.7811 15.3171 11.6727L14.9896 12.0002L11.9998 14.99ZM8.34628 18.6435L9.38846 17.6013C10.1739 17.8523 11.0427 18.0002 11.9998 18.0002C15.0852 18.0002 17.2532 16.4642 18.6705 14.8882C19.4457 14.021 20.096 13.0499 20.6025 12.0028L20.6037 12.0001L20.6025 11.9975C20.096 10.9505 19.4457 9.97934 18.6705 9.11218C18.5477 8.97573 18.4193 8.83958 18.2851 8.70471L19.2276 7.76221C19.3796 7.91481 19.5245 8.06831 19.6625 8.22152C20.3241 8.95979 20.9043 9.7671 21.3932 10.6295C21.5828 10.9646 21.7563 11.3086 21.9132 11.6602C21.9262 11.6876 21.9378 11.7156 21.9478 11.7442L21.9518 11.7495V11.7522C22.0156 11.9114 22.0156 12.089 21.9518 12.2482L21.3332 12.0002L21.9518 12.2495H21.9505V12.2509L21.9478 12.2562C21.9038 12.362 21.8576 12.4669 21.8092 12.5709C21.2473 13.7358 20.5247 14.8161 19.6625 15.7802C18.0812 17.5362 15.5812 19.3335 11.9998 19.3335C10.6257 19.3335 9.41103 19.0689 8.34628 18.6435Z" fill="#8A8989"/>
</svg>
