<svg width="14" height="14" viewBox="0 0 14 14" fill="none" xmlns="http://www.w3.org/2000/svg"> <path fill-rule="evenodd" clip-rule="evenodd" d="M7 0.999999C3.68629 0.999999 1 3.68629 1 7C1 10.3137 3.68629 13 7 13C10.3137 13 13 10.3137 13 7C13 3.68629 10.3137 1 7 0.999999ZM7 -6.11959e-07C3.13401 -9.49935e-07 9.49935e-07 3.13401 6.11959e-07 7C2.73984e-07 10.866 3.13401 14 7 14C10.866 14 14 10.866 14 7C14 3.13401 10.866 -2.73984e-07 7 -6.11959e-07ZM6.5 11L6.5 6L7.5 6L7.5 11L6.5 11ZM6.5 3L6.5 5L7.5 5L7.5 3L6.5 3Z" fill="#8A8989"/> </svg>