<svg width="20" height="20" viewBox="0 0 20 20" fill="none" xmlns="http://www.w3.org/2000/svg">
<path fill-rule="evenodd" clip-rule="evenodd" d="M18 10C18 14.4183 14.4183 18 10 18C5.58172 18 2 14.4183 2 10C2 5.58172 5.58172 2 10 2C10.8919 2 11.7497 2.14595 12.5508 2.41528L13.5995 0.667417C12.4826 0.236346 11.2689 0 10 0C4.47715 0 0 4.47715 0 10C0 15.5228 4.47715 20 10 20C15.5228 20 20 15.5228 20 10C20 8.73108 19.7637 7.51735 19.3326 6.40045L17.5847 7.44917C17.854 8.2503 18 9.10811 18 10Z" fill="#8A8989"/>
</svg>
