<svg width="24" height="24" viewBox="0 0 24 24" fill="none" xmlns="http://www.w3.org/2000/svg">
<path d="M2.66651 12.0003L2.04784 11.7523C1.98405 11.9115 1.98405 12.0891 2.04784 12.2483L2.66651 12.0003ZM21.3332 12.0003L21.9518 12.2483C22.0156 12.0891 22.0156 11.9115 21.9518 11.7523L21.3332 12.0003ZM11.9998 18.0003C8.91451 18.0003 6.74785 16.4643 5.32918 14.8883C4.55398 14.0212 3.9037 13.05 3.39718 12.003C3.36007 11.9237 3.32451 11.8437 3.29051 11.763L3.28518 11.7537V11.7523L2.66651 12.0003L2.04784 12.2483V12.251L2.05184 12.2563C2.06295 12.2845 2.0745 12.3125 2.08651 12.3403L2.19051 12.571C2.75252 13.7355 3.47512 14.8153 4.33718 15.779C5.91985 17.5363 8.41851 19.3337 11.9998 19.3337V18.0003ZM2.66651 12.0003L3.28518 12.2483L3.29051 12.2377C3.32305 12.1564 3.35863 12.0763 3.39718 11.9977C3.9037 10.9506 4.55398 9.97946 5.32918 9.11233C6.74651 7.53633 8.91451 6.00033 11.9998 6.00033V4.66699C8.41851 4.66699 5.91851 6.46433 4.33718 8.22166C3.4751 9.18533 2.7525 10.2652 2.19051 11.4297C2.14206 11.5336 2.09583 11.6385 2.05184 11.7443L2.04918 11.7497V11.751H2.04651L2.66651 12.0003ZM11.9998 6.00033C15.0852 6.00033 17.2518 7.53633 18.6705 9.11233C19.4457 9.97948 20.096 10.9506 20.6025 11.9977C20.6397 12.0769 20.6753 12.1569 20.7092 12.2377L20.7145 12.247V12.2483L21.3332 12.0003L21.9518 11.7523V11.7497L21.9478 11.7443C21.9378 11.7157 21.9262 11.6877 21.9132 11.6603C21.7563 11.3087 21.5828 10.9648 21.3932 10.6297C20.9043 9.76724 20.3241 8.95993 19.6625 8.22166C18.0798 6.46433 15.5812 4.66699 11.9998 4.66699V6.00033ZM21.3332 12.0003C21.1267 11.9184 20.9204 11.8357 20.7145 11.7523L20.7105 11.763L20.6905 11.8097L20.6025 12.003C20.096 13.05 19.4457 14.0212 18.6705 14.8883C17.2532 16.4643 15.0852 18.0003 11.9998 18.0003V19.3337C15.5812 19.3337 18.0812 17.5363 19.6625 15.7803C20.5247 14.8163 21.2473 13.7359 21.8092 12.571C21.8576 12.4671 21.9038 12.3622 21.9478 12.2563L21.9505 12.251V12.2497H21.9518L21.3332 12.0003ZM11.9998 14.0003C11.4694 14.0003 10.9607 13.7896 10.5856 13.4145C10.2106 13.0395 9.99985 12.5308 9.99985 12.0003H8.66651C8.66651 12.8844 9.0177 13.7322 9.64282 14.3573C10.2679 14.9825 11.1158 15.3337 11.9998 15.3337V14.0003ZM13.9998 12.0003C13.9998 12.5308 13.7891 13.0395 13.4141 13.4145C13.039 13.7896 12.5303 14.0003 11.9998 14.0003V15.3337C12.8839 15.3337 13.7317 14.9825 14.3569 14.3573C14.982 13.7322 15.3332 12.8844 15.3332 12.0003H13.9998ZM11.9998 10.0003C12.5303 10.0003 13.039 10.211 13.4141 10.5861C13.7891 10.9612 13.9998 11.4699 13.9998 12.0003H15.3332C15.3332 11.1163 14.982 10.2684 14.3569 9.6433C13.7317 9.01818 12.8839 8.66699 11.9998 8.66699V10.0003ZM11.9998 8.66699C11.1158 8.66699 10.2679 9.01818 9.64282 9.6433C9.0177 10.2684 8.66651 11.1163 8.66651 12.0003H9.99985C9.99985 11.4699 10.2106 10.9612 10.5856 10.5861C10.9607 10.211 11.4694 10.0003 11.9998 10.0003V8.66699Z" fill="#8A8989"/>
</svg>
