<svg width="144" height="144" viewBox="0 0 144 144" fill="none" xmlns="http://www.w3.org/2000/svg">
<path d="M13.65 130.35V13.65H130.35V130.35H13.65Z" fill="#76B82A" stroke="#3C3C3C" stroke-width="1.3" stroke-miterlimit="1.5"/>
<path d="M17.35 13C17.35 15.4024 15.4024 17.35 13 17.35C10.5976 17.35 8.65 15.4024 8.65 13C8.65 10.5976 10.5976 8.65 13 8.65C15.4024 8.65 17.35 10.5976 17.35 13Z" fill="white" stroke="#3C3C3C" stroke-width="1.3" stroke-miterlimit="1.5" stroke-linecap="square"/>
<path d="M135.35 13C135.35 15.4024 133.402 17.35 131 17.35C128.598 17.35 126.65 15.4024 126.65 13C126.65 10.5976 128.598 8.65 131 8.65C133.402 8.65 135.35 10.5976 135.35 13Z" fill="white" stroke="#3C3C3C" stroke-width="1.3" stroke-miterlimit="1.5" stroke-linecap="square"/>
<path d="M135.35 131C135.35 133.402 133.402 135.35 131 135.35C128.598 135.35 126.65 133.402 126.65 131C126.65 128.598 128.598 126.65 131 126.65C133.402 126.65 135.35 128.598 135.35 131Z" fill="white" stroke="#3C3C3C" stroke-width="1.3" stroke-miterlimit="1.5" stroke-linecap="square"/>
<path d="M17.35 131C17.35 133.402 15.4024 135.35 13 135.35C10.5976 135.35 8.65 133.402 8.65 131C8.65 128.598 10.5976 126.65 13 126.65C15.4024 126.65 17.35 128.598 17.35 131Z" fill="white" stroke="#3C3C3C" stroke-width="1.3" stroke-miterlimit="1.5" stroke-linecap="square"/>
<path d="M72 117C96.8528 117 117 96.8528 117 72C117 47.1472 96.8528 27 72 27C47.1472 27 27 47.1472 27 72C27 96.8528 47.1472 117 72 117Z" fill="white" stroke="#3C3C3C" stroke-width="1.3" stroke-miterlimit="1.5" stroke-linecap="square"/>
<path d="M46 80C52.1791 88.8288 61.8025 94 72.0065 94C82.2104 94 91.8338 88.8148 98 80" stroke="#3C3C3C" stroke-width="1.3" stroke-miterlimit="1.5"/>
</svg>
